#N canvas 0 0 621 641 10;
#X obj 60 283 line~;
#X msg 84 231 1;
#X msg 52 233 0;
#X obj 61 305 expr~ pow($v1 \, $v2) * -1 + 1;
#X obj 22 24 inlet trigger;
#X obj 384 293 line~;
#X msg 341 268 1;
#X msg 384 253 0;
#X obj 384 316 expr~ pow($v1 \, $v2);
#X obj 368 521 outlet~;
#X obj 122 386 snapshot~;
#X obj 60 452 +~;
#X obj 60 404 *~;
#X obj 367 429 *~;
#X obj 170 26 inlet attack;
#X obj 308 30 inlet release;
#X obj 60 258 pack f \$1;
#X obj 384 273 pack f \$2;
#X obj 511 37 inlet curve;
#X obj 511 294 sig~ \$3;
#X obj 255 279 sig~ \$3;
#X obj 41 130 del \$1;
#X obj 499 523 outlet switch;
#X obj 308 53 max 0.1;
#X obj 170 47 max 0.1;
#X obj 226 142 1;
#X obj 270 105 t b f;
#X obj 270 147 + 1;
#X obj 22 46 t b b b b;
#X obj 234 188 0;
#X obj 226 208 change;
#X text 305 141 switch on/off;
#X text 299 149 your parent-patch;
#X obj 511 61 max 0.6;
#X text 97 363 avoid clicks ?;
#X obj 60 178 t b b b b;
#X text 87 128 <-_+/-20ms?;
#X obj 233 169 del;
#X obj 270 128 + \$2;
#X obj 221 106 \$1;
#X obj 221 86 loadbang;
#X obj 122 408 - 1;
#X obj 122 428 * -1;
#X msg 225 523 version 0.1;
#X connect 0 0 3 0;
#X connect 1 0 0 0;
#X connect 2 0 16 0;
#X connect 3 0 12 0;
#X connect 4 0 28 0;
#X connect 5 0 8 0;
#X connect 6 0 5 0;
#X connect 7 0 17 0;
#X connect 8 0 13 1;
#X connect 10 0 11 1;
#X connect 10 0 41 0;
#X connect 11 0 13 0;
#X connect 12 0 11 0;
#X connect 13 0 9 0;
#X connect 13 0 10 0;
#X connect 14 0 24 0;
#X connect 15 0 23 0;
#X connect 16 0 0 0;
#X connect 17 0 5 0;
#X connect 18 0 33 0;
#X connect 19 0 8 1;
#X connect 20 0 3 1;
#X connect 21 0 7 0;
#X connect 23 0 17 1;
#X connect 23 0 26 0;
#X connect 24 0 16 1;
#X connect 24 0 21 1;
#X connect 24 0 38 0;
#X connect 25 0 30 0;
#X connect 26 0 38 0;
#X connect 26 1 38 1;
#X connect 27 0 37 1;
#X connect 28 0 37 0;
#X connect 28 1 21 0;
#X connect 28 2 35 0;
#X connect 28 3 25 0;
#X connect 29 0 30 0;
#X connect 30 0 22 0;
#X connect 33 0 19 0;
#X connect 33 0 20 0;
#X connect 35 0 2 0;
#X connect 35 1 6 0;
#X connect 35 2 1 0;
#X connect 35 3 10 0;
#X connect 37 0 29 0;
#X connect 38 0 27 0;
#X connect 39 0 38 0;
#X connect 40 0 39 0;
#X connect 41 0 42 0;
#X connect 42 0 12 1;
