#N canvas 162 250 450 300 10;
#X obj 127 98 * 1.5708;
#X obj 49 182 *~ 0.7;
#X obj 130 182 *~ 0.7;
#X obj 127 73 inlet;
#X obj 48 72 inlet~;
#X obj 49 213 outlet~;
#X obj 130 213 outlet~;
#X obj 86 160 cos;
#X obj 167 161 sin;
#X obj 202 73 f \$1;
#X obj 202 45 loadbang;
#X connect 0 0 7 0;
#X connect 0 0 8 0;
#X connect 1 0 5 0;
#X connect 2 0 6 0;
#X connect 3 0 0 0;
#X connect 4 0 1 0;
#X connect 4 0 2 0;
#X connect 7 0 1 1;
#X connect 8 0 2 1;
#X connect 9 0 0 0;
#X connect 10 0 9 0;
