#N canvas 443 2 713 522 10;
#X obj 95 243 * 12;
#X obj 95 221 - 1;
#X obj 95 200 random 4;
#X obj 95 265 sel 24;
#X floatatom 114 23 5 0 0 0 - - -;
#X msg 157 23 57;
#X text 28 20 base note;
#X obj 70 370 +;
#X floatatom 70 398 5 0 0 0 - - -;
#X obj 70 336 f;
#X obj 46 168 t b b f;
#X obj 95 311 -;
#X obj 131 290 + 0;
#X text 45 423 if zero \, switch this voice of.;
#X obj 114 55 t f f f f f;
#X obj 48 83 s p-1;
#X obj 97 84 s p-2;
#X obj 139 84 s p-3;
#X obj 180 84 s p-4;
#X obj 224 83 s p-5;
#X obj 207 244 * 12;
#X obj 207 222 - 1;
#X obj 207 201 random 4;
#X obj 207 266 sel 24;
#X obj 182 371 +;
#X floatatom 182 399 5 0 0 0 - - -;
#X obj 182 337 f;
#X obj 158 169 t b b f;
#X obj 207 312 -;
#X obj 46 139 r p-1;
#X obj 158 140 r p-2;
#X obj 325 243 * 12;
#X obj 325 221 - 1;
#X obj 325 200 random 4;
#X obj 325 265 sel 24;
#X obj 300 370 +;
#X floatatom 300 398 5 0 0 0 - - -;
#X obj 300 336 f;
#X obj 276 168 t b b f;
#X obj 325 311 -;
#X obj 437 244 * 12;
#X obj 437 222 - 1;
#X obj 437 201 random 4;
#X obj 437 266 sel 24;
#X obj 412 371 +;
#X floatatom 412 399 5 0 0 0 - - -;
#X obj 412 337 f;
#X obj 388 169 t b b f;
#X obj 437 312 -;
#X obj 558 244 * 12;
#X obj 558 222 - 1;
#X obj 558 201 random 4;
#X obj 558 266 sel 24;
#X obj 533 371 +;
#X floatatom 533 399 5 0 0 0 - - -;
#X obj 533 337 f;
#X obj 509 169 t b b f;
#X obj 558 312 -;
#X obj 276 139 r p-3;
#X obj 388 140 r p-4;
#X obj 509 140 r p-5;
#X obj 243 291 + 3;
#X obj 361 290 + 5;
#X obj 473 291 + 8;
#X obj 594 291 + 10;
#X connect 0 0 3 0;
#X connect 1 0 0 0;
#X connect 2 0 1 0;
#X connect 3 0 11 0;
#X connect 3 1 12 0;
#X connect 4 0 14 0;
#X connect 5 0 14 0;
#X connect 7 0 8 0;
#X connect 9 0 7 0;
#X connect 10 0 9 0;
#X connect 10 1 2 0;
#X connect 10 2 9 1;
#X connect 11 0 9 1;
#X connect 12 0 11 1;
#X connect 12 0 7 1;
#X connect 14 0 15 0;
#X connect 14 1 16 0;
#X connect 14 2 17 0;
#X connect 14 3 18 0;
#X connect 14 4 19 0;
#X connect 20 0 23 0;
#X connect 21 0 20 0;
#X connect 22 0 21 0;
#X connect 23 0 28 0;
#X connect 23 1 61 0;
#X connect 24 0 25 0;
#X connect 26 0 24 0;
#X connect 27 0 26 0;
#X connect 27 1 22 0;
#X connect 27 2 26 1;
#X connect 28 0 26 1;
#X connect 29 0 10 0;
#X connect 30 0 27 0;
#X connect 31 0 34 0;
#X connect 32 0 31 0;
#X connect 33 0 32 0;
#X connect 34 0 39 0;
#X connect 34 1 62 0;
#X connect 35 0 36 0;
#X connect 37 0 35 0;
#X connect 38 0 37 0;
#X connect 38 1 33 0;
#X connect 38 2 37 1;
#X connect 39 0 37 1;
#X connect 40 0 43 0;
#X connect 41 0 40 0;
#X connect 42 0 41 0;
#X connect 43 0 48 0;
#X connect 43 1 63 0;
#X connect 44 0 45 0;
#X connect 46 0 44 0;
#X connect 47 0 46 0;
#X connect 47 1 42 0;
#X connect 47 2 46 1;
#X connect 48 0 46 1;
#X connect 49 0 52 0;
#X connect 50 0 49 0;
#X connect 51 0 50 0;
#X connect 52 0 57 0;
#X connect 52 1 64 0;
#X connect 53 0 54 0;
#X connect 55 0 53 0;
#X connect 56 0 55 0;
#X connect 56 1 51 0;
#X connect 56 2 55 1;
#X connect 57 0 55 1;
#X connect 58 0 38 0;
#X connect 59 0 47 0;
#X connect 60 0 56 0;
#X connect 61 0 28 1;
#X connect 61 0 24 1;
#X connect 62 0 39 1;
#X connect 62 0 35 1;
#X connect 63 0 48 1;
#X connect 63 0 44 1;
#X connect 64 0 57 1;
#X connect 64 0 53 1;
