#N canvas 211 191 639 454 10;
#X obj -274 389 outlet~;
#X obj -274 165 phasor~;
#X obj -103 168 *~ 99;
#X obj -103 142 +~ 10;
#X obj -104 114 osc~ 6;
#X obj -273 232 vcf~ 30;
#X obj -273 258 mrz-pan~ \$2;
#X obj -77 373 outlet~;
#X obj -272 293 *~;
#X obj -211 294 *~;
#X obj -385 219 r~ var;
#X obj -77 330 delwrite~ r.table.\$1 1000;
#X obj -78 351 delread~ r.table.\$1 \$3;
#X obj -273 328 delwrite~ l.table.\$1 1000;
#X obj -274 349 delread~ l.table.\$1 \$4;
#X obj -274 139 mtof;
#X obj -274 96 t f b;
#X obj -301 71 sel 0;
#X text -125 235 arguments: unique-name/pan/delay-right/delay-left
;
#X obj -339 137 0;
#X obj -309 137 1;
#X obj -323 219 line~;
#X obj -338 255 *~;
#X obj -216 109 noise~;
#X obj -215 131 *~ 0;
#X obj -215 154 hip~ 500;
#X obj -215 177 lop~ 4000;
#X obj -52 174 clip 1 10000;
#X obj -184 -30 inlet;
#X obj -184 -2 route noise wahwah offset filter q;
#X obj -301 -28 inlet;
#X msg -323 196 \$1 2;
#X obj -1 90 clip 1 440;
#X obj -95 77 clip 1 440;
#X obj -1 64 * 440;
#X obj -104 48 * 440;
#X obj 25 127 * 10;
#X obj -144 81 * 30;
#X connect 1 0 5 0;
#X connect 2 0 5 1;
#X connect 3 0 2 0;
#X connect 4 0 3 0;
#X connect 5 0 6 0;
#X connect 6 0 8 0;
#X connect 6 1 9 0;
#X connect 8 0 13 0;
#X connect 9 0 11 0;
#X connect 10 0 22 0;
#X connect 12 0 7 0;
#X connect 14 0 0 0;
#X connect 15 0 1 0;
#X connect 16 0 15 0;
#X connect 16 1 20 0;
#X connect 17 0 19 0;
#X connect 17 1 16 0;
#X connect 19 0 31 0;
#X connect 20 0 31 0;
#X connect 21 0 22 1;
#X connect 22 0 9 1;
#X connect 22 0 8 1;
#X connect 23 0 24 0;
#X connect 24 0 25 0;
#X connect 25 0 26 0;
#X connect 26 0 5 0;
#X connect 27 0 5 2;
#X connect 28 0 29 0;
#X connect 29 0 24 1;
#X connect 29 1 37 0;
#X connect 29 2 35 0;
#X connect 29 3 34 0;
#X connect 29 4 36 0;
#X connect 30 0 17 0;
#X connect 31 0 21 0;
#X connect 32 0 2 1;
#X connect 33 0 3 1;
#X connect 34 0 32 0;
#X connect 35 0 33 0;
#X connect 36 0 27 0;
#X connect 37 0 4 0;
