#N canvas 379 55 725 554 10;
#X obj 214 286 pentaSeq;
#X msg 269 160 range \$1;
#X obj 268 117 hradio 15 1 0 8 empty empty empty 0 -8 0 10 -262144
-1 -1 0;
#X obj 360 183 nbx 5 14 -1e+37 1e+37 0 0 empty empty empty 0 -8 0 10
-262144 -1 -1 0 256;
#X msg 360 202 base-note \$1;
#X obj 268 138 + 1;
#X obj 398 240 nbx 5 14 -1e+37 1e+37 0 0 empty empty empty 0 -8 0 10
-262144 -1 -1 0 256;
#X msg 398 259 transpose \$1;
#X msg 268 83 bang;
#X obj 212 321 print;
#X msg 185 222 bang;
#X connect 0 0 9 0;
#X connect 1 0 0 1;
#X connect 2 0 5 0;
#X connect 3 0 4 0;
#X connect 4 0 0 1;
#X connect 5 0 1 0;
#X connect 6 0 7 0;
#X connect 7 0 0 1;
#X connect 8 0 2 0;
#X connect 10 0 0 0;
