#N canvas 597 203 585 430 10;
#X obj 53 3 dac~;
#X obj 56 -70 *~ 0.1;
#X floatatom 362 -28 5 0 0 0 - - -;
#X obj 263 -60 mrz-var~ 10 500 3;
#X obj 112 -68 *~ 0.1;
#X obj 56 -44 hip~ 50;
#X obj 112 -43 hip~ 50;
#X obj 247 -296 inlet;
#X obj 247 -271 route volume attack release curve;
#X obj 296 -92 * 2000;
#X obj 343 -93 * 5000;
#X obj 393 -93 * 10;
#N canvas 436 374 493 259 voices 1;
#X obj 125 83 outlet~;
#X obj 69 81 outlet~;
#X obj 38 -76 pentaSynth.voice \$1.a 0.25 0 20;
#X obj 360 -101 inlet;
#X obj 38 -111 route 0 1 2 3 4;
#X obj 38 -136 inlet;
#X obj 71 -52 pentaSynth.voice \$1.b 0.9 20 0;
#X obj 81 -26 pentaSynth.voice \$1.c 0.1 0 10;
#X obj 91 -2 pentaSynth.voice \$1.d 0.75 10 0;
#X obj 105 20 pentaSynth.voice \$1.e 0.5 0 0;
#X connect 2 0 1 0;
#X connect 2 1 0 0;
#X connect 3 0 2 1;
#X connect 3 0 6 1;
#X connect 3 0 7 1;
#X connect 3 0 8 1;
#X connect 3 0 9 1;
#X connect 4 0 2 0;
#X connect 4 1 6 0;
#X connect 4 2 7 0;
#X connect 4 3 8 0;
#X connect 4 4 9 0;
#X connect 5 0 4 0;
#X connect 6 0 1 0;
#X connect 6 1 0 0;
#X connect 7 0 1 0;
#X connect 7 1 0 0;
#X connect 8 0 1 0;
#X connect 8 1 0 0;
#X connect 9 0 1 0;
#X connect 9 1 0 0;
#X restore 56 -155 pd voices;
#X obj 56 -295 inlet;
#X obj 263 -30 s~ var;
#X obj 56 -255 t a b;
#X connect 1 0 5 0;
#X connect 3 0 14 0;
#X connect 3 1 2 0;
#X connect 4 0 6 0;
#X connect 5 0 0 0;
#X connect 6 0 0 1;
#X connect 7 0 8 0;
#X connect 8 0 1 1;
#X connect 8 0 4 1;
#X connect 8 1 9 0;
#X connect 8 2 10 0;
#X connect 8 3 11 0;
#X connect 8 4 12 1;
#X connect 9 0 3 1;
#X connect 10 0 3 2;
#X connect 11 0 3 3;
#X connect 12 0 1 0;
#X connect 12 1 4 0;
#X connect 13 0 15 0;
#X connect 15 0 12 0;
#X connect 15 1 3 0;
