#N canvas 199 50 388 444 10;
#X obj 113 -38 inlet;
#X obj 32 207 outlet;
#X msg 18 118 69 0 0 53 79 69 60 0 0 67 69 0 62 77 55 45 0 0 65 55
;
#X obj 8 -35 inlet;
#N canvas 596 50 611 461 generator 0;
#X obj 166 164 t f f f f f;
#X obj 70 238 penta-N 0;
#X obj 166 139 f 57;
#X obj 123 -28 inlet;
#X obj 101 276 pack f f f f f;
#X obj 130 109 until;
#X obj 128 58 clip 1 9;
#X obj 121 -3 route range base-note;
#X obj 164 29 t b f;
#X obj 129 81 t f b;
#X msg 92 308 add2 \$1 \$2 \$3 \$4 \$5;
#X msg 70 20 bang;
#X msg 459 243 set;
#X obj 159 361 outlet;
#X msg 295 -45 0 3 5 8 10;
#X obj 344 134 unpack f f f f f;
#X msg 318 -10 0 2 5 8 10;
#X msg 347 18 0 3 5 9 10;
#X msg 363 47 0 3 5 7 10;
#X obj 294 92 t b a;
#X obj 203 239 penta-N 5;
#X obj 345 241 penta-N 10;
#X obj 272 240 penta-N 8;
#X obj 138 238 penta-N 3;
#X connect 0 0 1 0;
#X connect 0 1 23 0;
#X connect 0 2 20 0;
#X connect 0 3 22 0;
#X connect 0 4 21 0;
#X connect 1 0 4 0;
#X connect 2 0 0 0;
#X connect 3 0 7 0;
#X connect 4 0 10 0;
#X connect 5 0 2 0;
#X connect 6 0 9 0;
#X connect 7 0 6 0;
#X connect 7 1 8 0;
#X connect 8 0 6 0;
#X connect 8 1 2 1;
#X connect 9 0 5 0;
#X connect 9 1 12 0;
#X connect 10 0 13 0;
#X connect 11 0 6 0;
#X connect 12 0 13 0;
#X connect 14 0 19 0;
#X connect 15 0 1 1;
#X connect 15 1 23 1;
#X connect 15 2 20 1;
#X connect 15 3 22 1;
#X connect 15 4 21 1;
#X connect 16 0 19 0;
#X connect 17 0 19 0;
#X connect 18 0 19 0;
#X connect 19 0 11 0;
#X connect 19 1 15 0;
#X connect 20 0 4 2;
#X connect 21 0 4 4;
#X connect 22 0 4 3;
#X connect 23 0 4 1;
#X restore 47 40 pd generator;
#X obj 113 4 t a a;
#N canvas 107 29 859 559 serializer 0;
#X obj 201 491 outlet;
#X obj 198 362 list split 5;
#X obj 164 331 list split 5;
#X msg 198 386 1 \$1 \, 2 \$2 \, 3 \$3 \, 4 \$4 \, 5 \$5;
#X obj 372 293 * 5;
#X obj 32 215 t a b;
#X obj 372 266 f;
#X obj 409 266 + 1;
#X floatatom 358 168 5 0 0 0 - - -;
#X obj 397 149 bng 15 250 50 0 empty empty empty 17 7 0 10 -262144
-1 -1;
#X obj 444 266 mod 3;
#X obj 358 192 clip 0 2;
#X obj 404 170 - 1;
#X obj 441 121 t f f;
#X obj 442 99 route range transpose;
#X obj 202 411 unpack f f;
#X obj 259 434 +;
#X obj 490 377 clip -24 24;
#X obj 203 458 pack f f;
#X obj 42 125 inlet;
#X obj 455 63 inlet;
#X connect 1 0 3 0;
#X connect 2 1 1 0;
#X connect 3 0 15 0;
#X connect 4 0 2 1;
#X connect 5 0 2 0;
#X connect 5 1 6 0;
#X connect 6 0 7 0;
#X connect 6 0 4 0;
#X connect 7 0 10 0;
#X connect 8 0 11 0;
#X connect 9 0 6 0;
#X connect 10 0 6 1;
#X connect 11 0 6 0;
#X connect 12 0 11 2;
#X connect 13 0 12 0;
#X connect 13 1 10 1;
#X connect 14 0 13 0;
#X connect 14 1 17 0;
#X connect 15 0 18 0;
#X connect 15 1 16 0;
#X connect 16 0 18 1;
#X connect 17 0 16 1;
#X connect 18 0 0 0;
#X connect 19 0 5 0;
#X connect 20 0 14 0;
#X restore 25 159 pd serializer;
#X connect 0 0 5 0;
#X connect 2 0 6 0;
#X connect 3 0 2 0;
#X connect 4 0 2 0;
#X connect 5 0 4 0;
#X connect 5 1 6 1;
#X connect 6 0 1 0;
