#N canvas 205 55 932 622 10;
#X msg 306 137 volume \$1;
#X obj 262 490 pentaSynth ID1;
#X obj 309 122 hsl 128 10 0 1 0 0 empty empty empty -2 -8 0 10 -262144
-1 -1 0 1;
#X obj 29 300 pentaSeq;
#X obj 2 64 tgl 15 0 empty empty empty 17 7 0 10 -262144 -1 -1 1 1
;
#X obj 2 86 metro 500;
#X obj 2 17 key;
#X obj 2 39 sel 167;
#X obj 336 170 hsl 128 10 0 1 0 0 empty empty empty -2 -8 0 10 -262144
-1 -1 0 1;
#X obj 359 222 hsl 128 10 0 1 0 0 empty empty empty -2 -8 0 10 -262144
-1 -1 7700 1;
#X obj 399 281 hsl 128 10 0 1 0 0 empty empty empty -2 -8 0 10 -262144
-1 -1 12700 1;
#X msg 333 185 attack \$1;
#X msg 356 245 release \$1;
#X msg 396 304 curve \$1;
#X obj 418 331 hsl 128 10 0 1 0 0 empty empty empty -2 -8 0 10 -262144
-1 -1 1100 1;
#X obj 486 354 hsl 128 10 0 1 0 0 empty empty empty -2 -8 0 10 -262144
-1 -1 100 1;
#X obj 503 407 hsl 128 10 0 1 0 0 empty empty empty -2 -8 0 10 -262144
-1 -1 0 1;
#X msg 415 354 wahwah \$1;
#X msg 483 377 offset \$1;
#X msg 500 430 filter \$1;
#X obj 514 458 hsl 128 10 0 1 0 0 empty empty empty -2 -8 0 10 -262144
-1 -1 10700 1;
#X msg 511 481 q \$1;
#X obj 563 483 hsl 128 10 0 1 0 0 empty empty empty -2 -8 0 10 -262144
-1 -1 0 1;
#X msg 560 506 noise \$1;
#X msg 84 174 range \$1;
#X obj 83 131 hradio 15 1 0 8 empty empty empty 0 -8 0 10 -262144 -1
-1 3;
#X obj 178 158 nbx 5 14 -1e+037 1e+037 0 0 empty empty empty 0 -8 0
10 -262144 -1 -1 0 256;
#X msg 178 177 base-note \$1;
#X obj 83 152 + 1;
#X obj 216 215 nbx 5 14 -1e+037 1e+037 0 0 empty empty empty 0 -8 0
10 -262144 -1 -1 0 256;
#X msg 216 234 transpose \$1;
#X msg 83 97 bang;
#X connect 0 0 1 1;
#X connect 2 0 0 0;
#X connect 3 0 1 0;
#X connect 4 0 5 0;
#X connect 5 0 3 0;
#X connect 6 0 7 0;
#X connect 7 0 4 0;
#X connect 8 0 11 0;
#X connect 9 0 12 0;
#X connect 10 0 13 0;
#X connect 11 0 1 1;
#X connect 12 0 1 1;
#X connect 13 0 1 1;
#X connect 14 0 17 0;
#X connect 15 0 18 0;
#X connect 16 0 19 0;
#X connect 17 0 1 1;
#X connect 18 0 1 1;
#X connect 19 0 1 1;
#X connect 20 0 21 0;
#X connect 21 0 1 1;
#X connect 22 0 23 0;
#X connect 23 0 1 1;
#X connect 24 0 3 1;
#X connect 25 0 28 0;
#X connect 26 0 27 0;
#X connect 27 0 3 1;
#X connect 28 0 24 0;
#X connect 29 0 30 0;
#X connect 30 0 3 1;
#X connect 31 0 25 0;
