#N canvas 357 321 307 399 10;
#X obj 126 199 * 12;
#X obj 126 177 - 1;
#X obj 124 130 random 4;
#X obj 126 221 sel 24;
#X obj 98 318 +;
#X obj 77 286 f;
#X obj 61 74 t b b f;
#X obj 126 267 -;
#X text 91 333 if zero \, switch this voice of.;
#X obj 78 368 outlet;
#X obj -1 21 inlet;
#X obj 162 246 + \$1;
#X text 43 21 midinote in;
#X obj 209 26 inlet;
#X obj 3 49 route bang;
#X obj 123 152 f;
#X obj 26 120 t b b;
#X connect 0 0 3 0;
#X connect 1 0 0 0;
#X connect 2 0 15 0;
#X connect 3 0 7 0;
#X connect 3 1 11 0;
#X connect 4 0 9 0;
#X connect 5 0 4 0;
#X connect 6 0 5 0;
#X connect 6 1 2 0;
#X connect 6 2 5 1;
#X connect 7 0 5 1;
#X connect 10 0 14 0;
#X connect 11 0 7 1;
#X connect 11 0 4 1;
#X connect 13 0 11 1;
#X connect 14 0 16 0;
#X connect 14 1 6 0;
#X connect 15 0 1 0;
#X connect 16 0 5 0;
#X connect 16 1 15 0;
