#N canvas 409 224 829 452 10;
#X obj -273 356 outlet~;
#X obj -273 132 phasor~;
#X obj -102 135 *~ 99;
#X obj -102 109 +~ 10;
#X obj -103 81 osc~ 6;
#X obj -272 199 vcf~ 30;
#X obj -272 225 mrz-pan~ \$2;
#X obj -76 340 outlet~;
#X obj -271 260 *~;
#X obj -210 261 *~;
#X obj -455 171 inlet~;
#X obj -398 172 r~ var;
#X obj -76 297 delwrite~ r.table.\$1 1000;
#X obj -77 318 delread~ r.table.\$1 \$3;
#X obj -272 295 delwrite~ l.table.\$1 1000;
#X obj -273 316 delread~ l.table.\$1 \$4;
#X obj -300 15 r penta.freq.\$1;
#X obj -103 33 r penta.wahwah;
#X obj 20 33 r penta.offset;
#X obj 149 33 r penta.filter;
#X obj 275 37 r penta.q;
#X obj -273 106 mtof;
#X obj -273 63 t f b;
#X obj -300 38 sel 0;
#X text -94 165 arguments: unique-name/pan/delay-right/delay-left;
#X obj -338 104 0;
#X obj -308 104 1;
#X obj -322 186 line~;
#X msg -322 163 \$1 5;
#X obj -337 222 *~;
#X obj -215 76 noise~;
#X obj -214 98 *~ 0;
#X obj -193 36 r penta.noise;
#X obj -214 121 hip~ 500;
#X obj -214 144 lop~ 4000;
#X obj 275 65 clip 1 10000;
#X connect 1 0 5 0;
#X connect 2 0 5 1;
#X connect 3 0 2 0;
#X connect 4 0 3 0;
#X connect 5 0 6 0;
#X connect 6 0 8 0;
#X connect 6 1 9 0;
#X connect 8 0 14 0;
#X connect 9 0 12 0;
#X connect 10 0 29 0;
#X connect 11 0 29 0;
#X connect 13 0 7 0;
#X connect 15 0 0 0;
#X connect 16 0 23 0;
#X connect 17 0 4 0;
#X connect 18 0 3 1;
#X connect 19 0 2 1;
#X connect 20 0 35 0;
#X connect 21 0 1 0;
#X connect 22 0 21 0;
#X connect 22 1 26 0;
#X connect 23 0 25 0;
#X connect 23 1 22 0;
#X connect 25 0 28 0;
#X connect 26 0 28 0;
#X connect 27 0 29 1;
#X connect 28 0 27 0;
#X connect 29 0 9 1;
#X connect 29 0 8 1;
#X connect 30 0 31 0;
#X connect 31 0 33 0;
#X connect 32 0 31 1;
#X connect 33 0 34 0;
#X connect 34 0 5 0;
#X connect 35 0 5 2;
